<svg width="400" height="473" viewBox="0 0 400 473" fill="none" xmlns="http://www.w3.org/2000/svg">
<path d="M286.756 472.722H65.6057C59.9071 472.722 55.3043 468.416 55.3043 463.084C55.3043 457.753 59.9071 453.447 65.6057 453.447H286.756C292.455 453.447 297.057 457.753 297.057 463.084C297.13 468.416 292.528 472.722 286.756 472.722Z" fill="#D7DDF2"/>
<path d="M114.264 181.956H3.8719C1.75318 181.956 -0.000244141 180.316 -0.000244141 178.334V98.5682H118.137V178.334C118.137 180.316 116.456 181.956 114.264 181.956Z" fill="#DADEF2"/>
<path d="M109.298 105.13H6.94226V174.301H109.298V105.13Z" fill="white"/>
<path d="M114.264 87.4266H3.8719C1.75318 87.4266 -0.000244141 89.0671 -0.000244141 91.0492V98.6362H118.137V91.0492C118.137 88.9987 116.456 87.4266 114.264 87.4266Z" fill="#332A75"/>
<path d="M10.303 93.0312C10.303 93.9198 9.57239 94.6033 8.62262 94.6033C7.67285 94.6033 6.94226 93.9198 6.94226 93.0312C6.94226 92.1427 7.67285 91.4592 8.62262 91.4592C9.57239 91.4592 10.303 92.1427 10.303 93.0312Z" fill="#FF1800"/>
<path d="M18.3375 93.0312C18.3375 93.9198 17.6069 94.6033 16.6572 94.6033C15.7074 94.6033 14.9768 93.9198 14.9768 93.0312C14.9768 92.1427 15.7074 91.4592 16.6572 91.4592C17.6069 91.4592 18.3375 92.1427 18.3375 93.0312Z" fill="#FFC900"/>
<path d="M24.6935 94.6033C25.6216 94.6033 26.3739 93.8995 26.3739 93.0312C26.3739 92.163 25.6216 91.4592 24.6935 91.4592C23.7655 91.4592 23.0132 92.163 23.0132 93.0312C23.0132 93.8995 23.7655 94.6033 24.6935 94.6033Z" fill="#00D694"/>
<path d="M14.9778 113.877H13.2974C12.9321 113.877 12.6399 113.604 12.6399 113.262V111.417C12.6399 111.075 12.9321 110.802 13.2974 110.802H14.9778C15.3431 110.802 15.6353 111.075 15.6353 111.417V113.262C15.7084 113.604 15.3431 113.877 14.9778 113.877Z" fill="#DADEF2"/>
<path d="M14.9786 120.028H13.2983C12.933 120.028 12.6407 119.755 12.6407 119.413V117.568C12.6407 117.226 12.933 116.953 13.2983 116.953H14.9786C15.3439 116.953 15.6362 117.226 15.6362 117.568V119.413C15.7092 119.755 15.3439 120.028 14.9786 120.028Z" fill="#DADEF2"/>
<path d="M29.3706 113.879H18.777C17.8273 113.879 17.0967 113.195 17.0967 112.307C17.0967 111.418 17.8273 110.734 18.777 110.734H29.3706C30.3204 110.734 31.051 111.418 31.051 112.307C31.051 113.195 30.2473 113.879 29.3706 113.879Z" fill="#DADEF2"/>
<path d="M31.1971 120.03H18.777C17.8273 120.03 17.0967 119.346 17.0967 118.458C17.0967 117.569 17.8273 116.886 18.777 116.886H31.1971C32.1469 116.886 32.8775 117.569 32.8775 118.458C32.8775 119.346 32.0738 120.03 31.1971 120.03Z" fill="#DADEF2"/>
<path d="M68.8554 166.629C83.1332 161.096 89.9133 145.782 83.9991 132.424C78.0849 119.066 61.716 112.723 47.4382 118.256C33.1604 123.789 26.3803 139.103 32.2945 152.461C38.2087 165.819 54.5776 172.162 68.8554 166.629Z" fill="#7499F7"/>
<path d="M58.1559 116.273V142.451H86.1376C86.0645 128.029 73.5714 116.273 58.1559 116.273Z" fill="#6956F2"/>
<path d="M70.2837 166.032C79.6353 161.795 86.1376 152.841 86.1376 142.451H58.1559L70.2837 166.032Z" fill="#56CBF2"/>
<path d="M58.1538 155.504C65.8605 155.504 72.1081 149.659 72.1081 142.449C72.1081 135.239 65.8605 129.394 58.1538 129.394C50.447 129.394 44.1995 135.239 44.1995 142.449C44.1995 149.659 50.447 155.504 58.1538 155.504Z" fill="white"/>
<path d="M97.0959 112.922H78.6849C76.8585 112.922 75.3242 114.289 75.3242 116.067V125.157C75.3242 126.798 76.6393 128.096 78.3196 128.233V131.719C78.3196 132.676 79.7078 133.086 80.2922 132.266L83.3607 128.233H97.0959C98.9223 128.233 100.457 126.866 100.457 125.089V115.998C100.457 114.358 98.9223 112.922 97.0959 112.922Z" fill="#FFC900"/>
<path d="M394.74 168.215H243.507C240.585 168.215 238.247 166.028 238.247 163.294V54.1377H400V163.294C400 166.028 397.662 168.215 394.74 168.215Z" fill="#DADEF2"/>
<path d="M394.739 38.8273H243.507C240.584 38.8273 238.247 41.0146 238.247 43.7486V54.0696H400V43.7486C400 41.0829 397.662 38.8273 394.739 38.8273Z" fill="#332A75"/>
<path d="M252.421 46.5497C252.421 47.7117 251.398 48.737 250.083 48.737C248.841 48.737 247.745 47.78 247.745 46.5497C247.745 45.3194 248.768 44.3625 250.083 44.3625C251.398 44.3625 252.421 45.3878 252.421 46.5497Z" fill="#FF1800"/>
<path d="M263.381 46.5497C263.381 47.7117 262.358 48.737 261.043 48.737C259.728 48.737 258.705 47.78 258.705 46.5497C258.705 45.3194 259.728 44.3625 261.043 44.3625C262.358 44.3625 263.381 45.3878 263.381 46.5497Z" fill="#FFC900"/>
<path d="M272.074 48.737C273.365 48.737 274.412 47.7577 274.412 46.5497C274.412 45.3417 273.365 44.3625 272.074 44.3625C270.783 44.3625 269.736 45.3417 269.736 46.5497C269.736 47.7577 270.783 48.737 272.074 48.737Z" fill="#00D694"/>
<path d="M344.476 62.1345H247.818V155.434H344.476V62.1345Z" fill="white"/>
<path d="M386.777 95.7633H353.462C351.562 95.7633 349.955 94.3279 349.955 92.4824V65.6889C349.955 63.9117 351.489 62.408 353.462 62.408H386.777C388.677 62.408 390.284 63.8434 390.284 65.6889V92.4824C390.284 94.3279 388.677 95.7633 386.777 95.7633Z" fill="#6956F2"/>
<path d="M390.284 100.002H349.955V155.435H390.284V100.002Z" fill="white"/>
<path d="M253.956 66.8525V146.413H337.828" stroke="#D6E2FF" stroke-width="1.80909" stroke-miterlimit="10"/>
<path d="M271.344 106.7H260.604C259.508 106.7 258.631 107.52 258.631 108.546V146.412H273.316V108.546C273.316 107.52 272.44 106.7 271.344 106.7Z" fill="#FFC900"/>
<path d="M291.509 122.9H280.769C279.674 122.9 278.797 123.72 278.797 124.746V146.413H293.482V124.746C293.482 123.72 292.605 122.9 291.509 122.9Z" fill="#6956F2"/>
<path d="M311.673 86.9467H300.933C299.837 86.9467 298.961 87.7669 298.961 88.7921V146.412H313.645V88.7921C313.645 87.7669 312.769 86.9467 311.673 86.9467Z" fill="#FF3700"/>
<path d="M331.835 69.245H321.095C319.999 69.245 319.123 70.0652 319.123 71.0905V146.482H333.807V71.0221C333.807 70.0652 332.931 69.245 331.835 69.245Z" fill="#56CBF2"/>
<path d="M264.256 73.4809H261.992C261.48 73.4809 261.042 73.0707 261.042 72.5923V70.0633C261.042 69.5848 261.48 69.1747 261.992 69.1747H264.256C264.768 69.1747 265.206 69.5848 265.206 70.0633V72.5923C265.133 73.0707 264.768 73.4809 264.256 73.4809Z" fill="#DADEF2"/>
<path d="M264.257 81.8864H261.992C261.481 81.8864 261.042 81.4763 261.042 80.9978V78.4688C261.042 77.9904 261.481 77.5803 261.992 77.5803H264.257C264.768 77.5803 265.207 77.9904 265.207 78.4688V80.9978C265.134 81.5446 264.768 81.8864 264.257 81.8864Z" fill="#DADEF2"/>
<path d="M283.911 73.4829H269.372C268.13 73.4829 267.107 72.526 267.107 71.3641C267.107 70.2021 268.13 69.2452 269.372 69.2452H283.911C285.153 69.2452 286.176 70.2021 286.176 71.3641C286.176 72.526 285.153 73.4829 283.911 73.4829Z" fill="#DADEF2"/>
<path d="M291.655 81.8891H269.372C268.13 81.8891 267.107 80.9322 267.107 79.7703C267.107 78.6083 268.13 77.6514 269.372 77.6514H291.655C292.897 77.6514 293.92 78.6083 293.92 79.7703C293.92 80.9322 292.897 81.8891 291.655 81.8891Z" fill="#DADEF2"/>
<path d="M370.119 132.741C377.463 132.741 383.416 127.172 383.416 120.301C383.416 113.431 377.463 107.861 370.119 107.861C362.776 107.861 356.823 113.431 356.823 120.301C356.823 127.172 362.776 132.741 370.119 132.741Z" stroke="#EBEBEB" stroke-width="6.03044" stroke-miterlimit="10"/>
<path d="M378.594 110.732C381.516 112.988 383.416 116.474 383.416 120.301C383.416 124.608 381.078 128.367 377.571 130.622" stroke="#3D7FEB" stroke-width="6.03044" stroke-miterlimit="10" stroke-linecap="round"/>
<path d="M378.082 73.8908H357.333C356.091 73.8908 355.068 72.9339 355.068 71.772C355.068 70.61 356.091 69.6531 357.333 69.6531H378.082C379.324 69.6531 380.347 70.61 380.347 71.772C380.347 72.9339 379.324 73.8908 378.082 73.8908Z" fill="#DADEF2"/>
<path d="M370.192 82.3673H357.333C356.091 82.3673 355.068 81.4104 355.068 80.2484C355.068 79.0864 356.091 78.1295 357.333 78.1295H370.192C371.434 78.1295 372.457 79.0864 372.457 80.2484C372.457 81.4104 371.434 82.3673 370.192 82.3673Z" fill="#DADEF2"/>
<path d="M383.709 143.13H356.239C355.581 143.13 354.997 142.652 354.997 141.968C354.997 141.353 355.508 140.806 356.239 140.806H383.709C384.367 140.806 384.951 141.285 384.951 141.968C384.951 142.652 384.367 143.13 383.709 143.13Z" fill="#DADEF2"/>
<path d="M383.709 148.666H356.239C355.581 148.666 354.997 148.187 354.997 147.504C354.997 146.888 355.508 146.342 356.239 146.342H383.709C384.367 146.342 384.951 146.82 384.951 147.504C384.951 148.187 384.367 148.666 383.709 148.666Z" fill="#DADEF2"/>
<path d="M242.044 125.087C237.952 124.13 237.295 126.659 236.564 131.512C235.834 136.433 234.811 144.225 234.592 149.761C243.87 153.521 253.003 157.417 262.354 160.834C264.984 153.999 269.295 143.883 270.172 137.458C271.048 131.102 269.952 129.325 266.226 126.18C262.939 123.378 259.067 121.601 254.756 122.079C249.496 122.694 246.281 133.972 245.112 138.005C244.601 135.339 246.135 126.044 242.044 125.087Z" fill="#FF826E"/>
<path d="M245.11 138.211C250.224 140.672 253.951 144.568 251.905 150.172" stroke="#78284B" stroke-width="0.56094" stroke-miterlimit="10"/>
<path d="M266.3 126.043C264.619 130.828 262.939 135.612 261.258 140.397" stroke="#78284B" stroke-width="0.56094" stroke-miterlimit="10"/>
<path d="M253.222 137.391C255.34 132.47 257.532 127.548 259.651 122.627" stroke="#78284B" stroke-width="0.56094" stroke-miterlimit="10"/>
<path d="M191.559 155.844C201.422 150.65 211.651 159.33 217.715 166.849C219.249 168.763 222.902 173.137 224.801 175.324C227.578 166.439 230.573 157.485 233.788 148.668C246.427 153.999 259.212 158.852 271.925 164.115C266.372 177.58 260.381 195.078 256.144 207.859C251.833 220.709 244.673 232.534 229.989 228.638C215.304 224.742 191.632 193.642 184.034 183.868C176.436 174.094 180.308 171.838 182.646 165.413C184.984 158.989 186.153 158.715 191.559 155.844Z" fill="#00B5F2"/>
<path d="M269.366 170.266C256.581 165.687 243.796 160.97 231.01 156.391L269.366 170.266Z" fill="#0099F2"/>
<path d="M144.584 120.303C140.711 116.543 130.337 120.098 128.657 121.055C125.661 122.695 123.469 125.634 122.958 128.847C122.52 131.307 122.885 134.041 121.278 135.955C119.67 137.869 116.529 138.211 114.045 137.527C111.488 136.844 109.369 135.272 107.104 134.041C104.839 132.811 102.136 131.786 99.5791 132.332C96.2914 132.948 94.0997 135.75 92.7115 138.621C88.7663 146.618 89.2047 156.324 93.8074 163.979C98.4832 171.634 107.177 176.966 116.529 177.854C125.88 178.743 135.597 175.189 141.807 168.558C145.972 164.116 148.456 157.417 145.168 152.428C144.291 151.061 142.976 149.694 143.415 148.122C144.072 146.003 147.214 146.003 149.259 145.114C152.912 143.474 153.424 138.826 152.693 135.135C151.451 129.598 148.675 124.404 144.584 120.303Z" fill="#332A75"/>
<path d="M225.753 419.68L243.799 444.013L264.183 454.881C266.374 456.043 267.689 458.23 267.689 460.554V461.511H235.032L210.63 440.595L204.566 461.511H201.206L205.151 419.612H225.753V419.68Z" fill="#332A75"/>
<path d="M204.417 428.018L205.221 419.679H225.751L243.796 444.012L261.331 453.376H235.468L204.417 428.018Z" fill="#FF826E"/>
<path d="M130.264 419.68L112.218 444.013L91.8346 454.881C89.6428 456.043 88.3278 458.23 88.3278 460.554V461.511H120.985L145.387 440.595L151.451 461.511H154.812L150.866 419.612H130.264V419.68Z" fill="#332A75"/>
<path d="M151.524 428.018L150.793 419.679H130.264L112.218 444.012L94.6837 453.376H120.547L151.524 428.018Z" fill="#FF826E"/>
<path d="M212.018 262.265L237.004 431.092L201.424 430.819L169.424 259.326L212.018 262.265Z" fill="#332A75"/>
<path d="M127.488 261.104L116.456 431.298L156.347 430.957C156.347 430.957 170.885 287.351 172.931 288.24C174.977 289.128 174.319 258.644 174.319 258.644L127.488 261.104Z" fill="#332A75"/>
<path d="M208.437 304.576L132.237 304.235L139.762 274.844L208.145 277.509L208.437 304.576Z" fill="#332A75"/>
<path d="M181.257 151.06L151.229 151.949L155.394 145.866L177.092 146.002L181.257 151.06Z" fill="#0099F2"/>
<path d="M209.02 174.434C209.385 176.826 218.371 189.061 219.102 193.64C220.052 199.792 211.723 214.487 211.723 214.487L212.6 250.645L208.947 265.477L179.358 265.136H122.956L131.358 234.788L115.504 171.563C115.504 171.563 119.815 159.67 132.673 156.116C145.531 152.562 157.586 149.486 157.586 149.486L176.289 150.169C176.289 150.169 186.956 151.673 195.942 153.929C203.54 155.774 207.12 161.242 209.02 174.434Z" fill="#8A7BF5"/>
<path d="M184.692 151.467C184.692 151.467 183.45 159.396 167.742 160.216C152.034 161.037 147.212 154.133 145.24 151.467C150.5 150.511 157.368 149.485 157.368 149.485L176.801 149.964C176.801 149.964 180.089 150.511 184.692 151.467Z" fill="#FF826E"/>
<path d="M182.937 91.0472C178.188 86.536 170.809 84.9639 164.16 86.1259C157.512 87.2195 149.256 87.4245 144.361 91.799C140.416 95.3533 139.32 102.94 137.786 107.861C136.252 112.783 136.763 118.456 140.051 122.557C145.53 129.46 156.928 130.007 165.11 126.043C171.32 123.035 176.069 118.114 180.233 113.056C181.256 111.826 182.133 110.596 183.375 109.57C184.179 108.955 185.055 108.408 185.786 107.725C187.685 105.811 187.832 102.53 187.466 100.069C187.101 96.6519 185.494 93.4394 182.937 91.0472Z" fill="#332A75"/>
<path d="M155.466 132.947L175.485 141.285L175.046 152.905C172.635 152.563 170.224 154.751 167.813 154.545C163.722 154.204 159.631 151.606 155.539 151.606L155.466 132.947Z" fill="#FF826E"/>
<path d="M155.466 132.947L175.485 141.285L175.046 152.905C172.635 152.563 170.224 154.751 167.813 154.545C163.722 154.204 159.631 151.606 155.539 151.606L155.466 132.947Z" fill="#FF826E"/>
<path d="M175.485 141.285L175.192 149.693C174.316 149.898 173.366 149.966 172.416 149.966C164.964 149.966 158.9 145.865 155.613 133.698C155.539 133.493 155.466 133.083 155.466 132.947L175.485 141.285Z" fill="#E45341"/>
<path d="M184.765 99.5897C187.103 102.324 188.491 105.673 188.711 109.227C189.003 114.148 189.222 121.394 188.345 127.614C186.957 137.935 176.364 142.924 172.345 143.061C167.158 143.198 157.222 140.395 153.788 129.117C150.647 118.728 148.09 109.842 148.09 109.842L148.382 108.202C149.624 100.752 155.98 94.9418 163.944 93.9849L168.473 93.4381C174.683 92.6862 180.893 95.0102 184.765 99.5897Z" fill="#FF826E"/>
<path d="M157.001 129.938C157.001 129.938 156.636 132.945 151.449 131.442C146.262 129.938 142.536 118.045 148.6 117.293C154.591 116.473 153.568 119.89 153.568 119.89L157.001 129.938Z" fill="#FF826E"/>
<path d="M175.633 118.591C175.487 120.846 176.656 122.897 178.555 124.196C178.847 124.401 179.213 124.674 179.505 125.084C181.478 127.476 177.459 130.689 174.683 128.023" stroke="#78284B" stroke-width="0.786972" stroke-miterlimit="10"/>
<path d="M176.507 134.516C176.507 134.516 170.443 135.952 166.571 130.483" stroke="#78284B" stroke-width="0.786972" stroke-miterlimit="10"/>
<path d="M165.402 122.487C166.047 122.487 166.571 121.508 166.571 120.3C166.571 119.092 166.047 118.113 165.402 118.113C164.756 118.113 164.233 119.092 164.233 120.3C164.233 121.508 164.756 122.487 165.402 122.487Z" fill="black"/>
<path d="M183.449 122.965C184.095 122.965 184.618 121.986 184.618 120.778C184.618 119.57 184.095 118.591 183.449 118.591C182.803 118.591 182.28 119.57 182.28 120.778C182.28 121.986 182.803 122.965 183.449 122.965Z" fill="black"/>
<path d="M186.372 115.585C186.372 115.585 185.057 112.235 181.039 113.602" stroke="#78284B" stroke-width="0.786972" stroke-miterlimit="10"/>
<path d="M167.74 113.261C167.74 113.261 164.452 111.484 162.333 114.902" stroke="#78284B" stroke-width="0.777857" stroke-miterlimit="10"/>
<path d="M156.344 119.346C155.395 121.465 153.86 123.857 151.449 123.857C150.061 123.857 148.746 122.969 148.016 121.875C147.285 120.782 146.92 119.483 146.701 118.184C145.532 112.443 145.459 106.291 148.089 100.96C149.331 98.4308 151.23 96.2436 153.568 94.5348C155.614 93.0994 158.682 91.459 161.312 91.8008C162.408 91.9375 163.285 92.5526 163.431 93.5779C163.65 95.0816 163.066 96.8587 162.774 98.3625C162.189 101.712 161.385 105.061 160.436 108.342C159.413 111.623 158.244 114.903 156.929 118.116C156.71 118.526 156.49 118.936 156.344 119.346Z" fill="#332A75"/>
<path d="M158.681 98.7708C164.891 104.512 172.854 108.545 181.402 110.322C185.347 111.142 189.512 111.484 193.311 110.322C201.128 107.93 205.731 99.3859 204.416 91.799C203.101 84.212 197.037 77.787 189.731 74.2328C183.74 71.362 176.726 70.0634 170.151 71.6354C163.649 73.2075 157.804 77.8554 155.978 83.8703C154.151 89.8851 152.763 95.7633 158.681 98.7708Z" fill="#332A75"/>
<path d="M164.6 212.369L161.386 306.01L105.568 303.139L127.998 229.389L113.167 171.017C113.167 171.017 119.158 161.858 122.957 159.192C126.756 156.458 146.336 151.879 147.943 151.879L164.6 212.369Z" fill="#00B5F2"/>
<path d="M155.615 145.795L151.378 154.475L164.602 212.369L141.296 181.884L149.697 173.067L135.743 166.505C135.743 166.437 139.031 149.827 155.615 145.795Z" fill="#79D3F2"/>
<path d="M182.427 211.753L187.102 304.642L225.897 300.063L213.331 250.645L212.527 214.282C212.527 214.282 219.614 199.45 220.125 193.64C220.636 187.831 209.824 174.434 209.824 174.434C209.824 174.434 209.458 162.199 202.737 156.047C198.134 151.81 186.591 151.946 186.591 151.946L182.427 211.753Z" fill="#00B5F2"/>
<path d="M175.339 146.001L181.257 151.059C181.257 151.059 184.544 187.285 182.426 211.686L193.312 178.878L187.102 173.068L198.864 160.355C198.937 160.355 186.006 145.249 175.339 146.001Z" fill="#79D3F2"/>
<path d="M225.385 299.858L226.408 299.722L213.842 250.646L213.038 214.42C213.696 212.984 220.125 199.383 220.636 193.709C221.221 187.763 210.627 174.708 210.189 174.161L209.385 174.776C209.458 174.913 220.125 188.036 219.613 193.641C219.102 199.314 212.088 214.01 212.015 214.146L211.942 214.215L212.746 250.714L225.385 299.858Z" fill="#0099F2"/>
<path d="M159.122 218.659C160.695 218.659 161.971 217.466 161.971 215.994C161.971 214.521 160.695 213.328 159.122 213.328C157.548 213.328 156.272 214.521 156.272 215.994C156.272 217.466 157.548 218.659 159.122 218.659Z" fill="#79D3F2"/>
<path d="M157.149 254.816C158.722 254.816 159.998 253.622 159.998 252.15C159.998 250.678 158.722 249.484 157.149 249.484C155.575 249.484 154.299 250.678 154.299 252.15C154.299 253.622 155.575 254.816 157.149 254.816Z" fill="#C2D1FC"/>
<path d="M155.178 292.274C156.752 292.274 158.027 291.081 158.027 289.608C158.027 288.136 156.752 286.943 155.178 286.943C153.604 286.943 152.329 288.136 152.329 289.608C152.329 291.081 153.604 292.274 155.178 292.274Z" fill="#79D3F2"/>
<path d="M192.702 197.254L215.35 197.254L215.35 193.358L192.702 193.358L192.702 197.254Z" fill="#79D3F2"/>
<path d="M191.883 273.734L214.531 273.734L214.531 269.838L191.883 269.838L191.883 273.734Z" fill="#79D3F2"/>
<path d="M138.374 169.173C146.41 187.012 132.017 194.189 121.789 204.715C115.433 211.208 111.269 213.464 105.278 219.137C93.223 217.223 90.6659 211.003 78.7573 207.859C77.4422 207.586 72.255 213.806 70.9399 213.532C73.2048 205.125 82.118 193.027 90.739 183.731C99.8714 173.82 117.844 162.611 121.278 161.586C132.675 157.963 135.67 163.158 138.374 169.173Z" fill="#00B5F2"/>
<path d="M127.56 303.96L82.5556 263.77C81.825 263.086 81.825 261.993 82.4825 261.309L139.25 205.671C139.98 204.988 141.149 204.988 141.88 205.603L186.884 245.793C187.615 246.477 187.615 247.571 186.957 248.254L130.19 303.892C129.533 304.644 128.364 304.644 127.56 303.96Z" fill="#356996"/>
<path d="M87.0825 262.497L128.782 299.73L182.4 247.17L140.7 209.937L87.0825 262.497Z" fill="white"/>
<path d="M166.282 231.369C170.72 231.369 174.318 228.003 174.318 223.85C174.318 219.698 170.72 216.332 166.282 216.332C161.843 216.332 158.245 219.698 158.245 223.85C158.245 228.003 161.843 231.369 166.282 231.369Z" fill="#244766"/>
<path d="M166.282 227.2C168.259 227.2 169.862 225.7 169.862 223.851C169.862 222.001 168.259 220.501 166.282 220.501C164.305 220.501 162.702 222.001 162.702 223.851C162.702 225.7 164.305 227.2 166.282 227.2Z" fill="#142738"/>
<path d="M167.525 240.803L148.164 223.51C146.338 221.938 145.753 219.409 146.703 217.29L148.749 212.233C149.333 210.797 151.306 210.387 152.475 211.481L180.237 236.224C181.406 237.249 181.041 239.094 179.58 239.71L174.319 241.897C171.981 242.854 169.278 242.444 167.525 240.803Z" fill="#244766"/>
<path d="M129.461 231.848C129.242 231.643 129.168 231.438 129.095 231.165L129.022 227.405C129.022 226.859 129.461 226.38 130.045 226.38C130.63 226.38 131.141 226.79 131.141 227.337L131.214 229.934L137.424 228.977C138.009 228.909 138.593 229.251 138.666 229.798C138.739 230.344 138.374 230.891 137.789 230.96L130.337 232.053C130.045 232.122 129.753 232.053 129.461 231.848C129.534 231.848 129.461 231.848 129.461 231.848Z" fill="#DADEF2"/>
<path d="M162.628 257.889L139.103 236.905C138.592 236.427 138.518 235.607 139.03 235.128C139.541 234.65 140.418 234.581 140.929 235.06L164.455 256.044C164.966 256.522 165.039 257.342 164.528 257.821C164.016 258.368 163.139 258.368 162.628 257.889Z" fill="#DADEF2"/>
<path d="M119.525 241.553C119.306 241.348 119.233 241.143 119.16 240.87L119.087 237.11C119.087 236.564 119.525 236.085 120.11 236.085C120.694 236.085 121.206 236.495 121.206 237.042L121.279 239.639L127.489 238.682C128.073 238.614 128.658 238.956 128.731 239.503C128.804 240.049 128.438 240.596 127.854 240.665L120.402 241.758C120.11 241.895 119.817 241.827 119.525 241.553C119.525 241.621 119.525 241.621 119.525 241.553Z" fill="#DADEF2"/>
<path d="M152.692 267.664L129.167 246.681C128.656 246.202 128.583 245.382 129.094 244.904C129.606 244.425 130.482 244.357 130.994 244.835L154.519 265.819C155.03 266.297 155.103 267.118 154.592 267.596C154.081 268.075 153.204 268.143 152.692 267.664Z" fill="#DADEF2"/>
<path d="M109.587 251.33C109.367 251.125 109.294 250.92 109.221 250.646L109.148 246.887C109.148 246.34 109.587 245.862 110.171 245.862C110.756 245.862 111.267 246.272 111.267 246.819L111.34 249.416L117.55 248.459C118.134 248.391 118.719 248.733 118.792 249.279C118.865 249.826 118.5 250.373 117.915 250.441L110.463 251.535C110.171 251.672 109.879 251.535 109.587 251.33Z" fill="#DADEF2"/>
<path d="M142.683 277.371L119.158 256.387C118.647 255.909 118.574 255.088 119.085 254.61C119.596 254.132 120.473 254.063 120.985 254.542L144.51 275.525C145.021 276.004 145.094 276.824 144.583 277.303C144.144 277.849 143.268 277.849 142.683 277.371Z" fill="#DADEF2"/>
<path d="M99.6518 261.102C99.4327 260.897 99.3596 260.692 99.2866 260.418L99.2135 256.659C99.2135 256.112 99.6519 255.634 100.236 255.634C100.821 255.634 101.332 256.044 101.332 256.591L101.405 259.188L107.615 258.231C108.2 258.163 108.784 258.505 108.857 259.051C108.93 259.598 108.565 260.145 107.981 260.213L100.529 261.307C100.236 261.375 99.9441 261.307 99.6518 261.102Z" fill="#DADEF2"/>
<path d="M132.748 287.143L109.223 266.159C108.711 265.681 108.638 264.86 109.15 264.382C109.661 263.904 110.538 263.835 111.049 264.314L134.574 285.297C135.086 285.776 135.159 286.596 134.647 287.075C134.209 287.621 133.332 287.621 132.748 287.143Z" fill="#DADEF2"/>
<path d="M149.624 262.742C153.788 259.872 151.377 257.821 147.505 254.677C143.633 251.533 137.423 246.885 132.674 243.809C122.811 248.389 112.948 252.968 103.377 257.89C107.396 264.52 113.606 272.927 119.377 277.643C125.076 282.359 126.391 282.222 132.382 281.129C137.715 280.172 141.368 278.19 143.925 274.089C147.067 269.031 139.176 261.444 135.962 258.026C139.615 259.325 145.459 265.545 149.624 262.742Z" fill="#FF826E"/>
<path d="M132.677 281.404C129.462 277.303 126.248 273.27 122.96 269.237" stroke="#78284B" stroke-width="0.619141" stroke-miterlimit="10"/>
<path d="M131.14 264.522C134.282 268.965 137.423 273.408 140.345 277.988" stroke="#78284B" stroke-width="0.619141" stroke-miterlimit="10"/>
<path d="M111.122 211.276C121.131 222.964 124.346 231.098 133.552 243.401C121.131 249.758 109.442 257.208 97.4603 264.111C89.4968 249.963 85.3324 240.462 75.9808 226.997C73.3507 223.238 71.8165 219.82 71.0128 216.539C71.4512 205.261 79.1224 201.775 80.4375 201.434C102.136 193.573 108.273 208.2 111.122 211.276Z" fill="#00B5F2"/>
<path d="M93.9541 258.163C104.694 251.328 116.091 244.356 128.73 236.906L128.146 236.086C115.507 243.605 104.109 250.576 93.3696 257.412L93.9541 258.163Z" fill="#0099F2"/>
<path d="M125.03 196.65L147.678 196.65L147.678 192.754L125.03 192.754L125.03 196.65Z" fill="#79D3F2"/>
<path d="M262.646 250.854V305.33H320.875C320.802 275.256 294.793 250.854 262.646 250.854Z" fill="#7499F7"/>
<path d="M16.2925 317.768C15.4889 339.572 27.7628 360.966 49.8267 371.765L78.9773 319.818L16.2925 317.768Z" fill="#A5DFF2"/>
<path d="M341.917 236.087H296.109V278.944H341.917V236.087Z" fill="#D7DDF2"/>
<path d="M137.059 0.278198H120.985V30.421H137.059V0.278198Z" fill="#A5DFF2"/>
<path d="M32.8777 431.3C45.265 431.3 55.3069 421.905 55.3069 410.316C55.3069 398.727 45.265 389.332 32.8777 389.332C20.4904 389.332 10.4485 398.727 10.4485 410.316C10.4485 421.905 20.4904 431.3 32.8777 431.3Z" fill="#D7DDF2"/>
<path d="M97.9712 57.0085C104.185 57.0085 109.222 52.2958 109.222 46.4824C109.222 40.669 104.185 35.9564 97.9712 35.9564C91.7574 35.9564 86.7201 40.669 86.7201 46.4824C86.7201 52.2958 91.7574 57.0085 97.9712 57.0085Z" fill="#D7DDF2"/>
<path d="M89.4967 42.9274C84.0903 42.9274 79.6337 38.8263 79.6337 33.7C79.6337 28.5737 84.0172 24.4726 89.4967 24.4726V15.3136C78.6109 15.3136 69.8438 23.5157 69.8438 33.7C69.8438 43.8843 78.6109 52.0864 89.4967 52.0864C92.5652 52.0864 95.4145 51.4029 98.0446 50.2409L93.7341 41.9705C92.4191 42.5856 91.0309 42.9274 89.4967 42.9274Z" fill="#7499F7"/>
<path d="M42.1555 323.169H56.1099C56.1099 308.747 43.6167 296.991 28.1282 296.991V310.046C35.8725 310.046 42.1555 315.924 42.1555 323.169Z" fill="#7499F7"/>
<path d="M290.266 219.55C290.339 219.413 290.485 219.345 290.558 219.208C290.923 218.798 291.289 218.388 291.654 217.978C291.654 217.909 291.727 217.909 291.727 217.841C292.019 217.431 292.311 217.021 292.604 216.611C292.677 216.474 292.75 216.337 292.823 216.269C293.115 215.859 293.334 215.449 293.627 215.039C293.627 214.97 293.7 214.97 293.7 214.902C293.992 214.423 294.211 213.945 294.503 213.466C294.576 213.33 294.649 213.193 294.722 213.056C294.942 212.646 295.088 212.236 295.307 211.826C295.38 211.689 295.38 211.621 295.453 211.484C295.672 211.006 295.818 210.459 296.037 209.912C296.111 209.776 296.111 209.639 296.184 209.57C296.33 209.16 296.403 208.682 296.549 208.272C296.549 208.135 296.622 207.998 296.622 207.862C296.768 207.315 296.841 206.768 296.914 206.221C296.914 206.153 296.914 206.016 296.987 205.948C297.06 205.469 297.133 204.991 297.133 204.512C297.133 204.376 297.133 204.239 297.206 204.034C297.279 203.487 297.279 202.872 297.279 202.325H283.325C283.325 207.52 280.111 211.963 275.362 214.082L281.426 225.906C281.937 225.701 282.448 225.428 282.96 225.154C283.106 225.086 283.252 225.018 283.398 224.949C283.837 224.744 284.275 224.471 284.64 224.198C284.713 224.129 284.786 224.129 284.859 224.061C285.298 223.787 285.809 223.446 286.248 223.104C286.394 223.036 286.467 222.967 286.613 222.831C286.978 222.557 287.343 222.284 287.709 222.01C287.782 221.942 287.928 221.874 288.001 221.737C288.439 221.395 288.805 220.985 289.243 220.643C289.316 220.575 289.389 220.507 289.462 220.438C289.608 220.233 289.9 219.891 290.266 219.55Z" fill="#A5DFF2"/>
<path d="M153.525 131.599L150.167 128.458L146.809 131.599L150.167 134.741L153.525 131.599Z" fill="#79D3F2"/>
</svg>
