<svg width="420" height="61" viewBox="0 0 420 61" fill="none" xmlns="http://www.w3.org/2000/svg">
<path fill-rule="evenodd" clip-rule="evenodd" d="M0.5 30.2782V16.2782C0.5 11.8599 2.0621 8.08868 5.18629 4.96449C8.31049 1.8403 12.0817 0.278198 16.5 0.278198H44.5C48.9183 0.278198 52.6895 1.8403 55.8137 4.96449C58.9379 8.08868 60.5 11.8599 60.5 16.2782V44.2782C60.5 48.6965 58.9379 52.4677 55.8137 55.5919C52.6895 58.7161 48.9183 60.2782 44.5 60.2782H16.5C12.0817 60.2782 8.31049 58.7161 5.18629 55.5919C2.0621 52.4677 0.5 48.6965 0.5 44.2782V30.2782Z" fill="#0A66C2"/>
<path fill-rule="evenodd" clip-rule="evenodd" d="M18.372 43.7022C17.9432 42.9759 17.8274 42.1068 18.0511 41.2936C18.2749 40.4804 18.819 39.7929 19.559 39.3882L40.624 27.5462C42.1709 26.6723 44.1322 27.184 45.055 28.7022C45.4838 29.4283 45.5995 30.2973 45.3758 31.1103C45.152 31.9233 44.6079 32.6108 43.868 33.0152L22.7999 44.8572C22.3054 45.1354 21.7474 45.2815 21.1799 45.2812C20.0309 45.287 18.9639 44.687 18.372 43.7022ZM15.939 31.8602C15.5104 31.1339 15.3948 30.2648 15.6186 29.4517C15.8423 28.6387 16.3862 27.9511 17.126 27.5462L38.192 15.7052C39.7385 14.8308 41.6999 15.3427 42.622 16.8612C43.0507 17.5873 43.1665 18.4563 42.9427 19.2693C42.719 20.0823 42.1749 20.7697 41.435 21.1742L20.37 33.0152C19.8757 33.2933 19.3181 33.4393 18.7509 33.4392C17.6006 33.446 16.5319 32.8459 15.9389 31.8602H15.939Z" fill="white"/>
<path d="M84.9 44.5582C82.9533 44.5582 81.1933 44.2249 79.62 43.5582C78.0733 42.8915 76.8467 41.9315 75.94 40.6782C75.0333 39.4249 74.5667 37.9449 74.54 36.2382H80.54C80.62 37.3849 81.02 38.2915 81.74 38.9582C82.4867 39.6249 83.5 39.9582 84.78 39.9582C86.0867 39.9582 87.1133 39.6515 87.86 39.0382C88.6067 38.3982 88.98 37.5715 88.98 36.5582C88.98 35.7315 88.7267 35.0515 88.22 34.5182C87.7133 33.9849 87.0733 33.5715 86.3 33.2782C85.5533 32.9582 84.5133 32.6115 83.18 32.2382C81.3667 31.7049 79.8867 31.1849 78.74 30.6782C77.62 30.1449 76.6467 29.3582 75.82 28.3182C75.02 27.2515 74.62 25.8382 74.62 24.0782C74.62 22.4249 75.0333 20.9849 75.86 19.7582C76.6867 18.5315 77.8467 17.5982 79.34 16.9582C80.8333 16.2915 82.54 15.9582 84.46 15.9582C87.34 15.9582 89.6733 16.6649 91.46 18.0782C93.2733 19.4649 94.2733 21.4115 94.46 23.9182H88.3C88.2467 22.9582 87.8333 22.1715 87.06 21.5582C86.3133 20.9182 85.3133 20.5982 84.06 20.5982C82.9667 20.5982 82.0867 20.8782 81.42 21.4382C80.78 21.9982 80.46 22.8115 80.46 23.8782C80.46 24.6249 80.7 25.2515 81.18 25.7582C81.6867 26.2382 82.3 26.6382 83.02 26.9582C83.7667 27.2515 84.8067 27.5982 86.14 27.9982C87.9533 28.5315 89.4333 29.0649 90.58 29.5982C91.7267 30.1315 92.7133 30.9315 93.54 31.9982C94.3667 33.0649 94.78 34.4649 94.78 36.1982C94.78 37.6915 94.3933 39.0782 93.62 40.3582C92.8467 41.6382 91.7133 42.6649 90.22 43.4382C88.7267 44.1849 86.9533 44.5582 84.9 44.5582ZM98.195 33.1982C98.195 30.9049 98.6617 28.9049 99.595 27.1982C100.528 25.4649 101.822 24.1315 103.475 23.1982C105.128 22.2382 107.022 21.7582 109.155 21.7582C111.902 21.7582 114.168 22.4515 115.955 23.8382C117.768 25.1982 118.982 27.1182 119.595 29.5982H113.555C113.235 28.6382 112.688 27.8915 111.915 27.3582C111.168 26.7982 110.235 26.5182 109.115 26.5182C107.515 26.5182 106.248 27.1049 105.315 28.2782C104.382 29.4249 103.915 31.0649 103.915 33.1982C103.915 35.3049 104.382 36.9449 105.315 38.1182C106.248 39.2649 107.515 39.8382 109.115 39.8382C111.382 39.8382 112.862 38.8249 113.555 36.7982H119.595C118.982 39.1982 117.768 41.1049 115.955 42.5182C114.142 43.9315 111.875 44.6382 109.155 44.6382C107.022 44.6382 105.128 44.1715 103.475 43.2382C101.822 42.2782 100.528 40.9449 99.595 39.2382C98.6617 37.5049 98.195 35.4915 98.195 33.1982ZM126.538 19.4782C125.551 19.4782 124.724 19.1715 124.058 18.5582C123.418 17.9182 123.098 17.1315 123.098 16.1982C123.098 15.2649 123.418 14.4915 124.058 13.8782C124.724 13.2382 125.551 12.9182 126.538 12.9182C127.524 12.9182 128.338 13.2382 128.978 13.8782C129.644 14.4915 129.978 15.2649 129.978 16.1982C129.978 17.1315 129.644 17.9182 128.978 18.5582C128.338 19.1715 127.524 19.4782 126.538 19.4782ZM129.298 22.1182V44.2782H123.698V22.1182H129.298ZM155.43 32.7182C155.43 33.5182 155.377 34.2382 155.27 34.8782H139.07C139.204 36.4782 139.764 37.7315 140.75 38.6382C141.737 39.5449 142.95 39.9982 144.39 39.9982C146.47 39.9982 147.95 39.1049 148.83 37.3182H154.87C154.23 39.4515 153.004 41.2115 151.19 42.5982C149.377 43.9582 147.15 44.6382 144.51 44.6382C142.377 44.6382 140.457 44.1715 138.75 43.2382C137.07 42.2782 135.75 40.9315 134.79 39.1982C133.857 37.4649 133.39 35.4649 133.39 33.1982C133.39 30.9049 133.857 28.8915 134.79 27.1582C135.724 25.4249 137.03 24.0915 138.71 23.1582C140.39 22.2249 142.324 21.7582 144.51 21.7582C146.617 21.7582 148.497 22.2115 150.15 23.1182C151.83 24.0249 153.124 25.3182 154.03 26.9982C154.964 28.6515 155.43 30.5582 155.43 32.7182ZM149.63 31.1182C149.604 29.6782 149.084 28.5315 148.07 27.6782C147.057 26.7982 145.817 26.3582 144.35 26.3582C142.964 26.3582 141.79 26.7849 140.83 27.6382C139.897 28.4649 139.324 29.6249 139.11 31.1182H149.63ZM171.798 21.7982C174.438 21.7982 176.571 22.6382 178.198 24.3182C179.824 25.9715 180.638 28.2915 180.638 31.2782V44.2782H175.038V32.0382C175.038 30.2782 174.598 28.9315 173.718 27.9982C172.838 27.0382 171.638 26.5582 170.118 26.5582C168.571 26.5582 167.344 27.0382 166.438 27.9982C165.558 28.9315 165.118 30.2782 165.118 32.0382V44.2782H159.518V22.1182H165.118V24.8782C165.864 23.9182 166.811 23.1715 167.958 22.6382C169.131 22.0782 170.411 21.7982 171.798 21.7982ZM192.483 26.7182V37.4382C192.483 38.1849 192.656 38.7315 193.003 39.0782C193.376 39.3982 193.99 39.5582 194.843 39.5582H197.443V44.2782H193.923C189.203 44.2782 186.843 41.9849 186.843 37.3982V26.7182H184.203V22.1182H186.843V16.6382H192.483V22.1182H197.443V26.7182H192.483ZM204.311 19.4782C203.324 19.4782 202.498 19.1715 201.831 18.5582C201.191 17.9182 200.871 17.1315 200.871 16.1982C200.871 15.2649 201.191 14.4915 201.831 13.8782C202.498 13.2382 203.324 12.9182 204.311 12.9182C205.298 12.9182 206.111 13.2382 206.751 13.8782C207.418 14.4915 207.751 15.2649 207.751 16.1982C207.751 17.1315 207.418 17.9182 206.751 18.5582C206.111 19.1715 205.298 19.4782 204.311 19.4782ZM207.071 22.1182V44.2782H201.471V22.1182H207.071ZM211.164 33.1182C211.164 30.8782 211.604 28.8915 212.484 27.1582C213.39 25.4249 214.604 24.0915 216.124 23.1582C217.67 22.2249 219.39 21.7582 221.284 21.7582C222.937 21.7582 224.377 22.0915 225.604 22.7582C226.857 23.4249 227.857 24.2649 228.604 25.2782V22.1182H234.244V44.2782H228.604V41.0382C227.884 42.0782 226.884 42.9449 225.604 43.6382C224.35 44.3049 222.897 44.6382 221.244 44.6382C219.377 44.6382 217.67 44.1582 216.124 43.1982C214.604 42.2382 213.39 40.8915 212.484 39.1582C211.604 37.3982 211.164 35.3849 211.164 33.1182ZM228.604 33.1982C228.604 31.8382 228.337 30.6782 227.804 29.7182C227.27 28.7315 226.55 27.9849 225.644 27.4782C224.737 26.9449 223.764 26.6782 222.724 26.6782C221.684 26.6782 220.724 26.9315 219.844 27.4382C218.964 27.9449 218.244 28.6915 217.684 29.6782C217.15 30.6382 216.884 31.7849 216.884 33.1182C216.884 34.4515 217.15 35.6249 217.684 36.6382C218.244 37.6249 218.964 38.3849 219.844 38.9182C220.75 39.4515 221.71 39.7182 222.724 39.7182C223.764 39.7182 224.737 39.4649 225.644 38.9582C226.55 38.4249 227.27 37.6782 227.804 36.7182C228.337 35.7315 228.604 34.5582 228.604 33.1982ZM269.604 24.9982C269.604 26.4915 269.244 27.8915 268.524 29.1982C267.831 30.5049 266.724 31.5582 265.204 32.3582C263.711 33.1582 261.818 33.5582 259.524 33.5582H254.844V44.2782H249.244V16.3582H259.524C261.684 16.3582 263.524 16.7315 265.044 17.4782C266.564 18.2249 267.698 19.2515 268.444 20.5582C269.218 21.8649 269.604 23.3449 269.604 24.9982ZM259.284 29.0382C260.831 29.0382 261.978 28.6915 262.724 27.9982C263.471 27.2782 263.844 26.2782 263.844 24.9982C263.844 22.2782 262.324 20.9182 259.284 20.9182H254.844V29.0382H259.284ZM272.14 33.1182C272.14 30.8782 272.58 28.8915 273.46 27.1582C274.367 25.4249 275.58 24.0915 277.1 23.1582C278.647 22.2249 280.367 21.7582 282.26 21.7582C283.914 21.7582 285.354 22.0915 286.58 22.7582C287.834 23.4249 288.834 24.2649 289.58 25.2782V22.1182H295.22V44.2782H289.58V41.0382C288.86 42.0782 287.86 42.9449 286.58 43.6382C285.327 44.3049 283.874 44.6382 282.22 44.6382C280.354 44.6382 278.647 44.1582 277.1 43.1982C275.58 42.2382 274.367 40.8915 273.46 39.1582C272.58 37.3982 272.14 35.3849 272.14 33.1182ZM289.58 33.1982C289.58 31.8382 289.314 30.6782 288.78 29.7182C288.247 28.7315 287.527 27.9849 286.62 27.4782C285.714 26.9449 284.74 26.6782 283.7 26.6782C282.66 26.6782 281.7 26.9315 280.82 27.4382C279.94 27.9449 279.22 28.6915 278.66 29.6782C278.127 30.6382 277.86 31.7849 277.86 33.1182C277.86 34.4515 278.127 35.6249 278.66 36.6382C279.22 37.6249 279.94 38.3849 280.82 38.9182C281.727 39.4515 282.687 39.7182 283.7 39.7182C284.74 39.7182 285.714 39.4649 286.62 38.9582C287.527 38.4249 288.247 37.6782 288.78 36.7182C289.314 35.7315 289.58 34.5582 289.58 33.1982ZM306.29 25.5582C307.01 24.3849 307.943 23.4649 309.09 22.7982C310.263 22.1315 311.596 21.7982 313.09 21.7982V27.6782H311.61C309.85 27.6782 308.516 28.0915 307.61 28.9182C306.73 29.7449 306.29 31.1849 306.29 33.2382V44.2782H300.69V22.1182H306.29V25.5582ZM323.382 26.7182V37.4382C323.382 38.1849 323.555 38.7315 323.902 39.0782C324.275 39.3982 324.888 39.5582 325.742 39.5582H328.342V44.2782H324.822C320.102 44.2782 317.742 41.9849 317.742 37.3982V26.7182H315.102V22.1182H317.742V16.6382H323.382V22.1182H328.342V26.7182H323.382ZM344.649 21.7982C347.289 21.7982 349.423 22.6382 351.049 24.3182C352.676 25.9715 353.489 28.2915 353.489 31.2782V44.2782H347.889V32.0382C347.889 30.2782 347.449 28.9315 346.569 27.9982C345.689 27.0382 344.489 26.5582 342.969 26.5582C341.423 26.5582 340.196 27.0382 339.289 27.9982C338.409 28.9315 337.969 30.2782 337.969 32.0382V44.2782H332.369V22.1182H337.969V24.8782C338.716 23.9182 339.663 23.1715 340.809 22.6382C341.983 22.0782 343.263 21.7982 344.649 21.7982ZM379.415 32.7182C379.415 33.5182 379.361 34.2382 379.255 34.8782H363.055C363.188 36.4782 363.748 37.7315 364.735 38.6382C365.721 39.5449 366.935 39.9982 368.375 39.9982C370.455 39.9982 371.935 39.1049 372.815 37.3182H378.855C378.215 39.4515 376.988 41.2115 375.175 42.5982C373.361 43.9582 371.135 44.6382 368.495 44.6382C366.361 44.6382 364.441 44.1715 362.735 43.2382C361.055 42.2782 359.735 40.9315 358.775 39.1982C357.841 37.4649 357.375 35.4649 357.375 33.1982C357.375 30.9049 357.841 28.8915 358.775 27.1582C359.708 25.4249 361.015 24.0915 362.695 23.1582C364.375 22.2249 366.308 21.7582 368.495 21.7582C370.601 21.7582 372.481 22.2115 374.135 23.1182C375.815 24.0249 377.108 25.3182 378.015 26.9982C378.948 28.6515 379.415 30.5582 379.415 32.7182ZM373.615 31.1182C373.588 29.6782 373.068 28.5315 372.055 27.6782C371.041 26.7982 369.801 26.3582 368.335 26.3582C366.948 26.3582 365.775 26.7849 364.815 27.6382C363.881 28.4649 363.308 29.6249 363.095 31.1182H373.615ZM389.102 25.5582C389.822 24.3849 390.756 23.4649 391.902 22.7982C393.076 22.1315 394.409 21.7982 395.902 21.7982V27.6782H394.422C392.662 27.6782 391.329 28.0915 390.422 28.9182C389.542 29.7449 389.102 31.1849 389.102 33.2382V44.2782H383.502V22.1182H389.102V25.5582ZM408.154 44.6382C406.341 44.6382 404.714 44.3182 403.274 43.6782C401.834 43.0115 400.687 42.1182 399.834 40.9982C399.007 39.8782 398.554 38.6382 398.474 37.2782H404.114C404.221 38.1315 404.634 38.8382 405.354 39.3982C406.101 39.9582 407.021 40.2382 408.114 40.2382C409.181 40.2382 410.007 40.0249 410.594 39.5982C411.207 39.1715 411.514 38.6249 411.514 37.9582C411.514 37.2382 411.141 36.7049 410.394 36.3582C409.674 35.9849 408.514 35.5849 406.914 35.1582C405.261 34.7582 403.901 34.3449 402.834 33.9182C401.794 33.4915 400.887 32.8382 400.114 31.9582C399.367 31.0782 398.994 29.8915 398.994 28.3982C398.994 27.1715 399.341 26.0515 400.034 25.0382C400.754 24.0249 401.767 23.2249 403.074 22.6382C404.407 22.0515 405.967 21.7582 407.754 21.7582C410.394 21.7582 412.501 22.4249 414.074 23.7582C415.647 25.0649 416.514 26.8382 416.674 29.0782H411.314C411.234 28.1982 410.861 27.5049 410.194 26.9982C409.554 26.4649 408.687 26.1982 407.594 26.1982C406.581 26.1982 405.794 26.3849 405.234 26.7582C404.701 27.1315 404.434 27.6515 404.434 28.3182C404.434 29.0649 404.807 29.6382 405.554 30.0382C406.301 30.4115 407.461 30.7982 409.034 31.1982C410.634 31.5982 411.954 32.0115 412.994 32.4382C414.034 32.8649 414.927 33.5315 415.674 34.4382C416.447 35.3182 416.847 36.4915 416.874 37.9582C416.874 39.2382 416.514 40.3849 415.794 41.3982C415.101 42.4115 414.087 43.2115 412.754 43.7982C411.447 44.3582 409.914 44.6382 408.154 44.6382Z" fill="#0A66C2"/>
</svg>
