<svg width="290" height="41" viewBox="0 0 290 41" fill="none" xmlns="http://www.w3.org/2000/svg">
<path fill-rule="evenodd" clip-rule="evenodd" d="M0.25 20.2976V10.9643C0.25 8.01875 1.2914 5.5046 3.37419 3.4218C5.45699 1.33901 7.97115 0.297607 10.9167 0.297607H29.5833C32.5289 0.297607 35.043 1.33901 37.1258 3.4218C39.2086 5.5046 40.25 8.01875 40.25 10.9643V29.6309C40.25 32.5765 39.2086 35.0906 37.1258 37.1734C35.043 39.2562 32.5289 40.2976 29.5833 40.2976H10.9167C7.97115 40.2976 5.45699 39.2562 3.37419 37.1734C1.2914 35.0906 0.25 32.5765 0.25 29.6309V20.2976Z" fill="white"/>
<path fill-rule="evenodd" clip-rule="evenodd" d="M12.1647 29.2469C11.8788 28.7627 11.8017 28.1833 11.9508 27.6412C12.1 27.099 12.4627 26.6407 12.956 26.3709L26.9994 18.4762C28.0307 17.8936 29.3382 18.2347 29.9534 19.2469C30.2393 19.731 30.3164 20.3103 30.1672 20.8523C30.0181 21.3943 29.6553 21.8526 29.162 22.1222L15.1167 30.0169C14.787 30.2024 14.415 30.2997 14.0367 30.2995C13.2707 30.3034 12.5593 29.9034 12.1647 29.2469ZM10.5426 21.3521C10.257 20.8679 10.1799 20.2885 10.329 19.7465C10.4782 19.2044 10.8408 18.746 11.334 18.4761L25.378 10.5821C26.409 9.9992 27.7166 10.3404 28.3313 11.3528C28.6172 11.8368 28.6943 12.4162 28.5451 12.9582C28.396 13.5002 28.0332 13.9585 27.54 14.2281L13.4966 22.1221C13.1671 22.3075 12.7954 22.4049 12.4173 22.4048C11.6504 22.4093 10.9379 22.0093 10.5426 21.3521H10.5426Z" fill="#0A66C2"/>
<path d="M69.3253 15.532C69.2325 14.6636 68.8414 13.9875 68.152 13.5036C67.4692 13.0197 66.581 12.7777 65.4872 12.7777C64.7183 12.7777 64.0587 12.8937 63.5085 13.1257C62.9583 13.3577 62.5374 13.6726 62.2457 14.0703C61.9541 14.4681 61.8049 14.9221 61.7983 15.4326C61.7983 15.8568 61.8944 16.2247 62.0866 16.5362C62.2855 16.8478 62.554 17.1129 62.892 17.3317C63.2301 17.5438 63.6046 17.7228 64.0156 17.8686C64.4266 18.0145 64.8409 18.1371 65.2585 18.2365L67.1676 18.7138C67.9366 18.8928 68.6757 19.1347 69.3849 19.4397C70.1009 19.7446 70.7405 20.129 71.304 20.5931C71.8741 21.0571 72.3248 21.6172 72.6562 22.2735C72.9877 22.9297 73.1534 23.6986 73.1534 24.5803C73.1534 25.7735 72.8485 26.8241 72.2386 27.7323C71.6288 28.6338 70.7472 29.3397 69.5938 29.8502C68.447 30.354 67.0582 30.6058 65.4276 30.6058C63.8433 30.6058 62.4678 30.3606 61.3011 29.8701C60.1411 29.3795 59.233 28.6636 58.5767 27.7223C57.9271 26.781 57.5758 25.6343 57.5227 24.282H61.152C61.205 24.9913 61.4238 25.5812 61.8082 26.0519C62.1927 26.5225 62.6932 26.8738 63.3097 27.1058C63.9328 27.3379 64.6288 27.4539 65.3977 27.4539C66.1998 27.4539 66.9025 27.3345 67.5057 27.0959C68.1155 26.8506 68.5928 26.5126 68.9375 26.0817C69.2822 25.6442 69.4579 25.1338 69.4645 24.5504C69.4579 24.0201 69.3021 23.5826 68.9972 23.2379C68.6922 22.8866 68.2647 22.595 67.7145 22.3629C67.1709 22.1243 66.5346 21.9122 65.8054 21.7266L63.4886 21.13C61.8116 20.6991 60.4858 20.0462 59.5114 19.1712C58.5436 18.2896 58.0597 17.1196 58.0597 15.6612C58.0597 14.4614 58.3845 13.4108 59.0341 12.5093C59.6903 11.6077 60.5819 10.9084 61.7088 10.4112C62.8357 9.90746 64.1117 9.65556 65.5369 9.65556C66.982 9.65556 68.2481 9.90746 69.3352 10.4112C70.429 10.9084 71.2874 11.6011 71.9105 12.4894C72.5336 13.371 72.8551 14.3852 72.875 15.532H69.3253ZM82.945 30.5959C81.4203 30.5959 80.1112 30.2611 79.0174 29.5916C77.9303 28.9221 77.0917 27.9974 76.5018 26.8175C75.9184 25.6309 75.6268 24.2654 75.6268 22.7209C75.6268 21.1698 75.9251 19.8009 76.5217 18.6144C77.1183 17.4212 77.9601 16.4932 79.0472 15.8303C80.141 15.1608 81.4336 14.826 82.9251 14.826C84.1647 14.826 85.2617 15.0547 86.2163 15.5121C87.1774 15.9629 87.9431 16.6025 88.5131 17.4311C89.0832 18.2531 89.408 19.2143 89.4876 20.3147H86.0472C85.908 19.5789 85.5766 18.9657 85.0529 18.4752C84.5359 17.978 83.8432 17.7294 82.9748 17.7294C82.239 17.7294 81.5927 17.9283 81.0359 18.326C80.479 18.7171 80.0449 19.2806 79.7333 20.0164C79.4284 20.7522 79.2759 21.6338 79.2759 22.6612C79.2759 23.702 79.4284 24.5968 79.7333 25.3459C80.0382 26.0883 80.4658 26.6617 81.016 27.0661C81.5728 27.4638 82.2257 27.6627 82.9748 27.6627C83.5051 27.6627 83.979 27.5632 84.3967 27.3644C84.8209 27.1589 85.1755 26.8639 85.4606 26.4794C85.7456 26.095 85.9412 25.6276 86.0472 25.0774H89.4876C89.4014 26.1579 89.0832 27.1158 88.533 27.951C87.9828 28.7796 87.2338 29.4292 86.2859 29.8999C85.338 30.3639 84.2243 30.5959 82.945 30.5959ZM92.4432 30.2976V15.0249H96.0426V30.2976H92.4432ZM94.2528 12.8573C93.6828 12.8573 93.1922 12.6683 92.7812 12.2905C92.3703 11.906 92.1648 11.4453 92.1648 10.9084C92.1648 10.3648 92.3703 9.90414 92.7812 9.5263C93.1922 9.14183 93.6828 8.9496 94.2528 8.9496C94.8295 8.9496 95.3201 9.14183 95.7244 9.5263C96.1354 9.90414 96.3409 10.3648 96.3409 10.9084C96.3409 11.4453 96.1354 11.906 95.7244 12.2905C95.3201 12.6683 94.8295 12.8573 94.2528 12.8573ZM106.505 30.5959C104.974 30.5959 103.652 30.2777 102.538 29.6414C101.431 28.9984 100.579 28.0902 99.9826 26.9169C99.386 25.737 99.0877 24.3483 99.0877 22.7507C99.0877 21.1797 99.386 19.8009 99.9826 18.6144C100.586 17.4212 101.428 16.4932 102.508 15.8303C103.589 15.1608 104.858 14.826 106.316 14.826C107.258 14.826 108.146 14.9785 108.981 15.2834C109.823 15.5817 110.565 16.0457 111.208 16.6754C111.858 17.3052 112.368 18.1073 112.74 19.0817C113.111 20.0495 113.297 21.2029 113.297 22.5419V23.6456H100.778V21.2195H109.846C109.84 20.5301 109.69 19.9169 109.399 19.38C109.107 18.8364 108.699 18.4089 108.176 18.0973C107.659 17.7858 107.056 17.63 106.366 17.63C105.63 17.63 104.984 17.809 104.427 18.1669C103.87 18.5183 103.436 18.9823 103.125 19.559C102.82 20.129 102.664 20.7555 102.657 21.4382V23.5561C102.657 24.4444 102.82 25.2067 103.145 25.8431C103.469 26.4728 103.923 26.9567 104.507 27.2948C105.09 27.6262 105.773 27.7919 106.555 27.7919C107.079 27.7919 107.553 27.719 107.977 27.5732C108.401 27.4207 108.769 27.1986 109.081 26.907C109.392 26.6153 109.627 26.254 109.787 25.8232L113.147 26.201C112.935 27.0893 112.531 27.8648 111.934 28.5277C111.344 29.184 110.589 29.6944 109.667 30.059C108.746 30.4169 107.692 30.5959 106.505 30.5959ZM119.941 21.3487V30.2976H116.342V15.0249H119.782V17.6201H119.961C120.312 16.7649 120.872 16.0855 121.641 15.5817C122.417 15.0779 123.375 14.826 124.515 14.826C125.569 14.826 126.487 15.0514 127.269 15.5022C128.058 15.9529 128.668 16.6058 129.099 17.461C129.536 18.3161 129.752 19.3535 129.745 20.5732V30.2976H126.146V21.13C126.146 20.1092 125.88 19.3104 125.35 18.7337C124.826 18.157 124.101 17.8686 123.173 17.8686C122.543 17.8686 121.983 18.0078 121.492 18.2862C121.008 18.558 120.627 18.9524 120.349 19.4695C120.077 19.9865 119.941 20.6129 119.941 21.3487ZM141.031 15.0249V17.809H132.251V15.0249H141.031ZM134.418 11.3658H138.018V25.7039C138.018 26.1878 138.091 26.559 138.237 26.8175C138.389 27.0694 138.588 27.2417 138.833 27.3345C139.078 27.4273 139.35 27.4737 139.648 27.4737C139.874 27.4737 140.079 27.4572 140.265 27.424C140.457 27.3909 140.603 27.3611 140.702 27.3345L141.309 30.1485C141.117 30.2147 140.842 30.2877 140.484 30.3672C140.132 30.4468 139.701 30.4932 139.191 30.5064C138.29 30.5329 137.478 30.397 136.755 30.0987C136.032 29.7938 135.459 29.3232 135.035 28.6868C134.617 28.0504 134.412 27.255 134.418 26.3004V11.3658ZM144.041 30.2976V15.0249H147.64V30.2976H144.041ZM145.85 12.8573C145.28 12.8573 144.79 12.6683 144.379 12.2905C143.968 11.906 143.762 11.4453 143.762 10.9084C143.762 10.3648 143.968 9.90414 144.379 9.5263C144.79 9.14183 145.28 8.9496 145.85 8.9496C146.427 8.9496 146.918 9.14183 147.322 9.5263C147.733 9.90414 147.939 10.3648 147.939 10.9084C147.939 11.4453 147.733 11.906 147.322 12.2905C146.918 12.6683 146.427 12.8573 145.85 12.8573ZM155.737 30.6058C154.769 30.6058 153.897 30.4335 153.121 30.0888C152.353 29.7375 151.743 29.2204 151.292 28.5377C150.848 27.8549 150.626 27.013 150.626 26.0121C150.626 25.1504 150.785 24.4378 151.103 23.8743C151.421 23.3109 151.855 22.8601 152.406 22.522C152.956 22.184 153.576 21.9288 154.265 21.7564C154.961 21.5774 155.68 21.4482 156.423 21.3686C157.317 21.2758 158.043 21.193 158.6 21.1201C159.157 21.0405 159.561 20.9212 159.813 20.7621C160.072 20.5964 160.201 20.3412 160.201 19.9965V19.9368C160.201 19.1878 159.979 18.6077 159.535 18.1968C159.091 17.7858 158.451 17.5803 157.616 17.5803C156.734 17.5803 156.035 17.7725 155.518 18.157C155.007 18.5415 154.663 18.9955 154.484 19.5192L151.123 19.0419C151.388 18.1139 151.826 17.3383 152.435 16.7152C153.045 16.0855 153.791 15.6148 154.673 15.3033C155.554 14.9851 156.529 14.826 157.596 14.826C158.332 14.826 159.064 14.9122 159.793 15.0845C160.522 15.2569 161.189 15.5419 161.792 15.9397C162.395 16.3308 162.879 16.8644 163.244 17.5405C163.615 18.2166 163.8 19.0618 163.8 20.076V30.2976H160.34V28.1996H160.221C160.002 28.6238 159.694 29.0216 159.296 29.3928C158.905 29.7574 158.411 30.0523 157.815 30.2777C157.225 30.4965 156.532 30.6058 155.737 30.6058ZM156.671 27.961C157.394 27.961 158.02 27.8184 158.55 27.5334C159.081 27.2417 159.488 26.8573 159.773 26.38C160.065 25.9027 160.211 25.3824 160.211 24.8189V23.0192C160.098 23.112 159.906 23.1982 159.634 23.2777C159.369 23.3573 159.071 23.4269 158.739 23.4865C158.408 23.5462 158.08 23.5992 157.755 23.6456C157.43 23.692 157.148 23.7318 156.91 23.7649C156.373 23.8379 155.892 23.9572 155.468 24.1229C155.044 24.2886 154.709 24.5206 154.464 24.8189C154.219 25.1106 154.096 25.4884 154.096 25.9524C154.096 26.6153 154.338 27.1158 154.822 27.4539C155.306 27.7919 155.922 27.961 156.671 27.961ZM174.524 30.2976V9.93397H182.161C183.725 9.93397 185.037 10.2256 186.098 10.809C187.165 11.3923 187.971 12.1944 188.514 13.2152C189.064 14.2294 189.339 15.3828 189.339 16.6754C189.339 17.9813 189.064 19.1414 188.514 20.1556C187.964 21.1698 187.152 21.9685 186.078 22.5519C185.004 23.1286 183.682 23.4169 182.111 23.4169H177.05V20.3843H181.614C182.528 20.3843 183.277 20.2252 183.861 19.907C184.444 19.5888 184.875 19.1513 185.153 18.5945C185.438 18.0377 185.581 17.398 185.581 16.6754C185.581 15.9529 185.438 15.3165 185.153 14.7664C184.875 14.2162 184.441 13.7886 183.851 13.4837C183.268 13.1721 182.515 13.0164 181.594 13.0164H178.213V30.2976H174.524ZM196.506 30.6058C195.538 30.6058 194.667 30.4335 193.891 30.0888C193.122 29.7375 192.512 29.2204 192.061 28.5377C191.617 27.8549 191.395 27.013 191.395 26.0121C191.395 25.1504 191.554 24.4378 191.873 23.8743C192.191 23.3109 192.625 22.8601 193.175 22.522C193.725 22.184 194.345 21.9288 195.034 21.7564C195.73 21.5774 196.45 21.4482 197.192 21.3686C198.087 21.2758 198.813 21.193 199.37 21.1201C199.926 21.0405 200.331 20.9212 200.583 20.7621C200.841 20.5964 200.971 20.3412 200.971 19.9965V19.9368C200.971 19.1878 200.748 18.6077 200.304 18.1968C199.86 17.7858 199.221 17.5803 198.385 17.5803C197.504 17.5803 196.804 17.7725 196.287 18.157C195.777 18.5415 195.432 18.9955 195.253 19.5192L191.892 19.0419C192.158 18.1139 192.595 17.3383 193.205 16.7152C193.815 16.0855 194.56 15.6148 195.442 15.3033C196.324 14.9851 197.298 14.826 198.365 14.826C199.101 14.826 199.834 14.9122 200.563 15.0845C201.292 15.2569 201.958 15.5419 202.561 15.9397C203.165 16.3308 203.649 16.8644 204.013 17.5405C204.384 18.2166 204.57 19.0618 204.57 20.076V30.2976H201.11V28.1996H200.99C200.772 28.6238 200.463 29.0216 200.066 29.3928C199.675 29.7574 199.181 30.0523 198.584 30.2777C197.994 30.4965 197.301 30.6058 196.506 30.6058ZM197.441 27.961C198.163 27.961 198.79 27.8184 199.32 27.5334C199.85 27.2417 200.258 26.8573 200.543 26.38C200.835 25.9027 200.98 25.3824 200.98 24.8189V23.0192C200.868 23.112 200.676 23.1982 200.404 23.2777C200.139 23.3573 199.84 23.4269 199.509 23.4865C199.177 23.5462 198.849 23.5992 198.525 23.6456C198.2 23.692 197.918 23.7318 197.679 23.7649C197.142 23.8379 196.662 23.9572 196.238 24.1229C195.813 24.2886 195.479 24.5206 195.233 24.8189C194.988 25.1106 194.865 25.4884 194.865 25.9524C194.865 26.6153 195.107 27.1158 195.591 27.4539C196.075 27.7919 196.692 27.961 197.441 27.961ZM208.189 30.2976V15.0249H211.679V17.5703H211.838C212.117 16.6887 212.594 16.0093 213.27 15.532C213.953 15.0481 214.732 14.8061 215.607 14.8061C215.806 14.8061 216.028 14.8161 216.273 14.836C216.525 14.8492 216.734 14.8724 216.9 14.9056V18.2166C216.747 18.1636 216.505 18.1172 216.174 18.0774C215.849 18.031 215.534 18.0078 215.229 18.0078C214.573 18.0078 213.983 18.1504 213.459 18.4354C212.942 18.7138 212.534 19.1016 212.236 19.5987C211.938 20.0959 211.789 20.6693 211.789 21.3189V30.2976H208.189ZM227.738 15.0249V17.809H218.958V15.0249H227.738ZM221.125 11.3658H224.725V25.7039C224.725 26.1878 224.798 26.559 224.944 26.8175C225.096 27.0694 225.295 27.2417 225.54 27.3345C225.785 27.4273 226.057 27.4737 226.355 27.4737C226.581 27.4737 226.786 27.4572 226.972 27.424C227.164 27.3909 227.31 27.3611 227.409 27.3345L228.016 30.1485C227.824 30.2147 227.549 30.2877 227.191 30.3672C226.839 30.4468 226.408 30.4932 225.898 30.5064C224.997 30.5329 224.185 30.397 223.462 30.0987C222.739 29.7938 222.166 29.3232 221.742 28.6868C221.324 28.0504 221.119 27.255 221.125 26.3004V11.3658ZM234.347 21.3487V30.2976H230.748V15.0249H234.188V17.6201H234.367C234.719 16.7649 235.279 16.0855 236.048 15.5817C236.823 15.0779 237.781 14.826 238.921 14.826C239.975 14.826 240.893 15.0514 241.675 15.5022C242.464 15.9529 243.074 16.6058 243.505 17.461C243.942 18.3161 244.158 19.3535 244.151 20.5732V30.2976H240.552V21.13C240.552 20.1092 240.287 19.3104 239.756 18.7337C239.233 18.157 238.507 17.8686 237.579 17.8686C236.949 17.8686 236.389 18.0078 235.898 18.2862C235.415 18.558 235.033 18.9524 234.755 19.4695C234.483 19.9865 234.347 20.6129 234.347 21.3487ZM254.572 30.5959C253.04 30.5959 251.718 30.2777 250.604 29.6414C249.497 28.9984 248.646 28.0902 248.049 26.9169C247.452 25.737 247.154 24.3483 247.154 22.7507C247.154 21.1797 247.452 19.8009 248.049 18.6144C248.652 17.4212 249.494 16.4932 250.575 15.8303C251.655 15.1608 252.924 14.826 254.383 14.826C255.324 14.826 256.212 14.9785 257.048 15.2834C257.889 15.5817 258.632 16.0457 259.275 16.6754C259.924 17.3052 260.435 18.1073 260.806 19.0817C261.177 20.0495 261.363 21.2029 261.363 22.5419V23.6456H248.844V21.2195H257.913C257.906 20.5301 257.757 19.9169 257.465 19.38C257.174 18.8364 256.766 18.4089 256.242 18.0973C255.725 17.7858 255.122 17.63 254.433 17.63C253.697 17.63 253.05 17.809 252.494 18.1669C251.937 18.5183 251.503 18.9823 251.191 19.559C250.886 20.129 250.73 20.7555 250.724 21.4382V23.5561C250.724 24.4444 250.886 25.2067 251.211 25.8431C251.536 26.4728 251.99 26.9567 252.573 27.2948C253.156 27.6262 253.839 27.7919 254.621 27.7919C255.145 27.7919 255.619 27.719 256.043 27.5732C256.468 27.4207 256.835 27.1986 257.147 26.907C257.459 26.6153 257.694 26.254 257.853 25.8232L261.214 26.201C261.002 27.0893 260.597 27.8648 260.001 28.5277C259.411 29.184 258.655 29.6944 257.734 30.059C256.812 30.4169 255.758 30.5959 254.572 30.5959ZM264.408 30.2976V15.0249H267.898V17.5703H268.057C268.336 16.6887 268.813 16.0093 269.489 15.532C270.172 15.0481 270.951 14.8061 271.826 14.8061C272.025 14.8061 272.247 14.8161 272.492 14.836C272.744 14.8492 272.953 14.8724 273.118 14.9056V18.2166C272.966 18.1636 272.724 18.1172 272.392 18.0774C272.068 18.031 271.753 18.0078 271.448 18.0078C270.792 18.0078 270.202 18.1504 269.678 18.4354C269.161 18.7138 268.753 19.1016 268.455 19.5987C268.157 20.0959 268.007 20.6693 268.007 21.3189V30.2976H264.408ZM287.581 19.0618L284.299 19.4198C284.207 19.0883 284.044 18.7768 283.812 18.4851C283.587 18.1934 283.282 17.9581 282.897 17.7791C282.513 17.6002 282.042 17.5107 281.485 17.5107C280.736 17.5107 280.107 17.6731 279.596 17.9979C279.092 18.3227 278.844 18.7436 278.85 19.2607C278.844 19.7048 279.006 20.0661 279.338 20.3445C279.676 20.6229 280.233 20.8516 281.008 21.0306L283.613 21.5874C285.058 21.8989 286.132 22.3928 286.835 23.0689C287.544 23.7451 287.902 24.63 287.909 25.7237C287.902 26.6849 287.62 27.5334 287.064 28.2692C286.513 28.9984 285.748 29.5684 284.767 29.9794C283.786 30.3904 282.659 30.5959 281.386 30.5959C279.517 30.5959 278.012 30.2048 276.872 29.4226C275.732 28.6338 275.052 27.5367 274.833 26.1314L278.343 25.7933C278.502 26.4827 278.841 27.0031 279.358 27.3544C279.875 27.7058 280.547 27.8814 281.376 27.8814C282.231 27.8814 282.917 27.7058 283.434 27.3544C283.958 27.0031 284.22 26.5689 284.22 26.0519C284.22 25.6144 284.051 25.2531 283.713 24.9681C283.381 24.683 282.864 24.4643 282.162 24.3118L279.556 23.7649C278.092 23.46 277.008 22.9463 276.305 22.2237C275.602 21.4946 275.254 20.5732 275.261 19.4595C275.254 18.5183 275.51 17.7029 276.027 17.0135C276.55 16.3175 277.276 15.7806 278.204 15.4027C279.139 15.0183 280.216 14.826 281.436 14.826C283.225 14.826 284.634 15.2072 285.662 15.9695C286.696 16.7318 287.335 17.7626 287.581 19.0618Z" fill="white"/>
</svg>
